<svg version="1.2" xmlns="http://www.w3.org/2000/svg" viewBox="0 0 850 850" width="850" height="850">
	<title>CrestApps Package-ai</title>
	<defs>
		<linearGradient id="g1" x2="1" gradientUnits="userSpaceOnUse" gradientTransform="matrix(0,-77.727,678.107,0,420.471,606.131)">
			<stop offset="0" stop-color="#ffffff" stop-opacity="1"/>
			<stop offset="1" stop-color="#ffffff" stop-opacity="0"/>
		</linearGradient>
		<linearGradient id="g2" x2="1" gradientUnits="userSpaceOnUse" gradientTransform="matrix(151.625,-200.318,339.474,256.955,434.269,468.246)">
			<stop offset="0" stop-color="#ffffff" stop-opacity="1"/>
			<stop offset="1" stop-color="#ffffff" stop-opacity="0"/>
		</linearGradient>
	</defs>
	<style>
		.s0 { fill: #191718 } 
		.s1 { fill: #d9d9d9 } 
		.s2 { fill: #eaa429 } 
		.s3 { mix-blend-mode: screen;fill: url(#g1) } 
		.s4 { fill: #bfbfbf } 
		.s5 { fill: #d88500 } 
		.s6 { fill: url(#g2) } 
	</style>
	<g id="Layer 1">
		<g id="Background">
			<path id="&lt;Path&gt;" class="s0" d="m850 0v850h-850v-850z"/>
		</g>
		<g id="Logo Artwork">
			<g id="CrestApps">
				<g id="&lt;Group&gt;">
					<g id="&lt;Group&gt;">
						<g id="&lt;Group&gt;">
							<g id="&lt;Group&gt;">
								<path id="&lt;Compound Path&gt;" class="s1" d="m128.2 602.7q7.5 0 12.7-2.2 5.2-2.2 8.9-4.9 3.6-2.7 6.4-4.9 2.9-2.2 5.8-2.2 3.6 0 3.6 5.5 0 2.9-0.7 7-0.7 4.1-2 9.2-0.7 3.1-3.6 6.8-2.8 3.6-7.7 6.8-4.9 3.2-12.2 5.3-7.2 2.1-16.5 2.1-9.3 0-18.6-2.7-9.3-2.8-16.6-9.3-7.3-6.6-11.9-17.8-4.5-11.1-4.5-27.9 0-6 0.8-13.9 0.8-8 3.2-16.4 2.4-8.4 6.7-16.5 4.2-8.1 11-14.5 6.7-6.4 16.5-10.3 9.8-3.9 23.3-3.9 10.7 0 18.7 2.5 7.9 2.6 13.1 7 5.2 4.5 7.7 10.5 2.5 6.1 2.5 12.8 0 11.7-6.9 17.1-6.8 5.4-19.4 5.4-4 0-5-0.7-1-0.6-1-2.6-0.2-6.2-0.4-10.8-0.2-4.6-1.3-7.6-1.1-3-3.4-4.3-2.2-1.4-6.3-1.4-5.8 0-9.9 2.4-4.1 2.5-6.9 6.4-2.9 4-4.6 8.9-1.7 4.9-2.7 10-1 5.1-1.3 9.9-0.3 4.7-0.3 8.2 0 16.8 5.6 23.9 5.5 7.1 17.2 7.1z"/>
							</g>
						</g>
						<g id="&lt;Group&gt;">
							<g id="&lt;Group&gt;">
								<path id="&lt;Compound Path&gt;" fill-rule="evenodd" class="s1" d="m192.2 629.4q-7.7 0-10.9-3.1-3.1-3-3.1-8.9 0-1.6 0.2-5.5 0.2-3.8 0.6-9.1 0.4-5.2 0.9-11.5 0.4-6.3 1-12.7 1-13.7 1.5-22.1 0.5-8.5 0.8-13.4 0.4-6.1 0.8-7.7 0.4-1.7 1.7-1.7 4.2 0 8.6-0.2 4.4-0.2 8.4-0.5 4-0.3 7.6-0.5 3.6-0.2 6.4-0.2 8.6 0 14.8 2.2 6.2 2.1 10.1 6 3.8 4 5.6 9.5 1.9 5.5 1.9 12.4 0 10.5-4.2 18.7-4.2 8.2-13.4 12.6l11.4 16.1q3.1 4.6 4.7 7.1 1.6 2.5 1.6 3.7 0 1-1.1 2.6-1.2 1.7-3.4 3.4-2.2 1.7-5.4 2.9-3.2 1.2-7.1 1.2-4.3 0-7.5-2.8-3.1-2.8-5.6-7.5-2.5-4.6-4.3-10.7-1.9-6.1-3.5-12.7-4.8-0.2-7.9-0.9-0.4 5.9-0.8 11.3-0.4 5.4-0.7 9.6-0.3 4.3-0.5 7-0.3 2.8-0.3 3.4-0.2 1-0.6 1.5-0.4 0.5-1.6 0.5zm21.9-76.9q-1.7 0-3.7 0.2-2 0.2-4.3 0.5-0.3 4.7-0.6 11.3-0.3 6.5-0.9 13.9 4.7 1.1 8.2 1.1 4.2 0 6.9-1.6 2.6-1.6 4.1-4 1.4-2.3 1.9-5 0.5-2.7 0.5-4.9 0-5.5-2.7-8.5-2.7-3-9.4-3z"/>
							</g>
						</g>
						<g id="&lt;Group&gt;">
							<g id="&lt;Group&gt;">
								<path id="&lt;Compound Path&gt;" class="s1" d="m271.3 629.4q-7.5 0-10.8-3-3.2-3-3.2-8.5 0-2.7 0.4-9.2 0.4-6.6 1.1-14.9 0.6-8.4 1.3-17.7 0.7-9.3 1.4-17.5 0.6-8.2 1-14.4 0.4-6.2 0.4-8.5 0-2 2.2-2h47.5q0.8 0 1.4 0.4 0.7 0.4 0.7 1.5l-0.5 7.9q-0.3 4.1-2.3 6.5-1.9 2.5-8 2.5h-18.6l-1.3 19h19.1q0.8 0 1.5 0.5 0.7 0.4 0.7 1.4l-0.6 8q-0.2 4-2.2 6.5-1.9 2.5-8 2.5h-11.7l-1.5 20.1h29.6q0.8 0 1.5 0.5 0.7 0.4 0.7 1.4l-0.5 7.9q-0.3 4.1-2.3 6.6-1.9 2.5-8 2.5z"/>
							</g>
						</g>
						<g id="&lt;Group&gt;">
							<g id="&lt;Group&gt;">
								<path id="&lt;Compound Path&gt;" class="s1" d="m357.8 532.3q12.7 0 18.8 5.5 6.2 5.6 6.2 14.5 0 7.5-4.2 11.5-4.2 4-12 4-2.4 0-3.1-0.5-0.7-0.5-0.7-2 0-1.3-0.2-3.5-0.2-2.1-1-4.1-0.8-2.1-2.5-3.5-1.8-1.4-4.9-1.4-4.3 0-7.7 2.6-3.4 2.7-3.4 6.8 0 3.7 2.8 6 2.8 2.3 7 4.2 4.1 2 9.1 4 4.9 2 9.1 5.3 4.1 3.3 6.9 8.2 2.8 5 2.8 12.5 0 5.9-2 11.1-2 5.2-5.8 9.1-3.8 3.8-9.7 6-5.9 2.1-13.7 2.1-6.7 0-12.4-1.5-5.8-1.4-10-3.7-4.3-2.2-6.7-4.8-2.4-2.6-2.4-4.8 0-8.9 1-12.8 1-3.9 3.7-3.9 1.9 0 4 1.6 2.1 1.6 4.8 3.6 2.7 2.1 6.2 3.7 3.6 1.6 8.3 1.6 1.9 0 3.7-0.3 1.8-0.4 3.3-1.2 1.4-0.8 2.2-2.1 0.9-1.4 0.9-3.3 0-3.3-2.5-5.4-2.6-2-6.5-3.7-3.9-1.7-8.4-3.5-4.5-1.8-8.5-5-3.9-3.1-6.4-8.1-2.6-5-2.6-12.8 0-8.8 3.3-14.9 3.3-6 8.5-9.9 5.2-3.8 11.7-5.5 6.6-1.7 13-1.7z"/>
							</g>
						</g>
						<g id="&lt;Group&gt;">
							<g id="&lt;Group&gt;">
								<path id="&lt;Compound Path&gt;" class="s1" d="m433.3 552.5l-5.1 74.9q-0.1 2-1.5 2h-7.4q-7.5 0-10.8-3-3.2-3-3.2-8.5 0-2 0.2-6 0.2-4.1 0.6-9.6 0.4-5.4 0.9-11.8 0.4-6.4 1-13 0.5-6.5 1-13 0.5-6.4 0.9-12h-21.6q-1.5 0-1.5-1.8l0.4-7.6q0.2-1.7 0.6-3.4 0.5-1.7 1.6-3.1 1.1-1.3 2.7-2.1 1.7-0.8 4.2-0.8h60.2q0.8 0 1.5 0.4 0.7 0.4 0.7 1.5l-0.6 7.9q-0.2 4.1-2.2 6.5-2 2.5-8 2.5z"/>
							</g>
						</g>
						<path id="&lt;Compound Path&gt;" fill-rule="evenodd" class="s2" d="m518.9 499.8q4.5 0 7.5 1.7 3 1.8 5.1 4.6 2 2.8 3.2 6.5 1.3 3.6 2.2 7.4 7.3 29.6 12.1 48.8 4.7 19.1 7.5 30.9 2.7 11.8 3.8 17.4 1.1 5.7 1.1 7.9 0 2.6-1.2 3.5-1.2 0.9-3.7 0.9h-9.4q-7.8 0-12.5-1.9-4.6-2-7.1-5.6-2.4-3.7-3.5-8.9-1.1-5.2-1.9-11.7h-31.7l-6 25.2q-1 2.9-4.2 2.9h-9.7q-2.9 0-6-0.7-3.1-0.6-5.6-2.1-2.5-1.4-4.1-3.7-1.6-2.3-1.6-5.6 0-4 2.5-13.1 2.6-9.1 6.5-20.7 3.9-11.6 8.7-24.3 4.9-12.7 9.4-24 4.6-11.3 8.4-19.9 3.7-8.6 5.7-12 1.5-2.6 2.6-3.1 1.2-0.4 4.5-0.4zm-21.9 75h21l-7.7-48.2z"/>
						<path id="&lt;Compound Path&gt;" fill-rule="evenodd" class="s2" d="m580.4 629.4q-7.6 0-10.8-3.1-3.2-3-3.2-8.9 0-1.8 0.2-5.6 0.2-3.9 0.6-9.1 0.4-5.3 0.9-11.5 0.5-6.2 1-12.6 0.7-8 1.2-13.7 0.4-5.8 0.7-9.9 0.3-4.1 0.5-6.8 0.2-2.8 0.3-4.9 0-2.1 0.1-3.8 0.1-1.8 0.1-3.8 0-1.1 0.6-1.6 0.7-0.4 1.4-0.4 3.5 0 7.7-0.2 4.1-0.2 8.3-0.5 4.2-0.3 8.1-0.5 3.9-0.2 6.9-0.2 8.6 0 14.8 2.1 6.2 2.1 10.1 6.1 3.8 4 5.6 9.6 1.8 5.7 1.8 13 0 7.9-2.1 15.3-2 7.3-6.5 13-4.4 5.6-11.5 9-7 3.4-16.7 3.4-5.8 0-9.8-1.3l-1.9 24.9q-0.1 1-0.5 1.5-0.4 0.5-1.6 0.5zm21.8-76.9q-1.8 0-3.9 0.2-2.2 0.2-4.6 0.5-0.3 5.7-0.7 13.8-0.4 8.1-1.1 16.9 2.1 0.6 4 0.8 2 0.2 3.6 0.2 4.7 0 7.6-2.2 2.9-2.3 4.5-5.5 1.6-3.2 2.2-6.7 0.5-3.5 0.5-6.1 0-5.8-2.6-8.8-2.6-3.1-9.5-3.1z"/>
						<path id="&lt;Compound Path&gt;" fill-rule="evenodd" class="s2" d="m655.7 629.4q-7.7 0-10.9-3.1-3.2-3-3.2-8.9 0-1.8 0.2-5.6 0.2-3.9 0.7-9.1 0.4-5.3 0.8-11.5 0.5-6.2 1-12.6 0.7-8 1.2-13.7 0.5-5.8 0.7-9.9 0.3-4.1 0.5-6.8 0.2-2.8 0.3-4.9 0-2.1 0.1-3.8 0.1-1.8 0.1-3.8 0-1.1 0.6-1.6 0.7-0.4 1.4-0.4 3.5 0 7.7-0.2 4.2-0.2 8.3-0.5 4.2-0.3 8.1-0.5 3.9-0.2 6.9-0.2 8.6 0 14.8 2.1 6.2 2.1 10.1 6.1 3.8 4 5.6 9.6 1.8 5.7 1.8 13 0 7.9-2 15.3-2.1 7.3-6.6 13-4.4 5.6-11.4 9-7 3.4-16.8 3.4-5.8 0-9.8-1.3l-1.9 24.9q-0.1 1-0.5 1.5-0.4 0.5-1.6 0.5zm21.8-76.9q-1.8 0-3.9 0.2-2.2 0.2-4.6 0.5-0.3 5.7-0.7 13.8-0.4 8.1-1 16.9 2 0.6 3.9 0.8 2 0.2 3.6 0.2 4.7 0 7.6-2.2 2.9-2.3 4.5-5.5 1.7-3.2 2.2-6.7 0.5-3.5 0.5-6.1 0-5.8-2.6-8.8-2.6-3.1-9.5-3.1z"/>
						<path id="&lt;Compound Path&gt;" class="s2" d="m753.9 532.3q12.7 0 18.8 5.5 6.2 5.6 6.2 14.5 0 7.5-4.2 11.5-4.2 4-12 4-2.4 0-3.1-0.5-0.7-0.5-0.7-2 0-1.3-0.2-3.5-0.2-2.1-1-4.1-0.8-2.1-2.6-3.5-1.7-1.4-4.8-1.4-4.3 0-7.7 2.6-3.4 2.7-3.4 6.8 0 3.7 2.8 6 2.8 2.3 6.9 4.2 4.2 2 9.1 4 5 2 9.1 5.3 4.2 3.3 7 8.2 2.7 5 2.7 12.5 0 5.9-1.9 11.1-2 5.2-5.8 9.1-3.9 3.8-9.7 6-5.9 2.1-13.7 2.1-6.7 0-12.5-1.5-5.7-1.4-9.9-3.7-4.3-2.2-6.7-4.8-2.4-2.6-2.4-4.8 0-8.9 1-12.8 1-3.9 3.7-3.9 1.9 0 4 1.6 2 1.6 4.7 3.6 2.7 2.1 6.3 3.7 3.6 1.6 8.3 1.6 1.9 0 3.7-0.3 1.8-0.4 3.2-1.2 1.5-0.8 2.3-2.1 0.9-1.4 0.9-3.3 0-3.3-2.6-5.4-2.5-2-6.4-3.7-3.9-1.7-8.4-3.5-4.6-1.8-8.5-5-3.9-3.1-6.4-8.1-2.6-5-2.6-12.8 0-8.8 3.3-14.9 3.3-6 8.5-9.9 5.2-3.8 11.7-5.5 6.6-1.7 13-1.7z"/>
					</g>
				</g>
				<path id="&lt;Compound Path&gt;" fill-rule="evenodd" class="s3" d="m266.8 537.6h43.8l-0.3 5.6q-0.2 2.9-1.4 4.4c0 0-0.9 1-5 1h-18.6c-2 0-3.7 1.6-3.9 3.7l-1.3 19c-0.1 1.1 0.3 2.1 1 2.9 0.8 0.8 1.8 1.3 2.9 1.3h17.2l-0.4 5.6q0 0.5-0.1 1h-37.1q0.2-2.8 0.4-5.7 0.7-9.3 1.4-17.5c0.4-5.5 0.8-10.4 1-14.5q0.3-4.3 0.4-6.8zm112.1 14.7c0 3.9-1 6.8-3 8.7-2 1.9-5.1 2.8-9.2 2.9q-0.1-1.1-0.2-2.4-0.2-2.8-1.3-5.3-1.1-2.9-3.7-5c-1.9-1.5-4.3-2.3-7.3-2.3-3.8 0-7.1 1.2-10.1 3.5-3.2 2.4-4.9 5.9-4.9 9.8 0 3.6 1.5 6.7 4.2 9 2.1 1.7 4.7 3.3 7.8 4.8 2.8 1.3 5.9 2.6 9.3 4q2.1 0.9 4.1 2.1h-31.9c-2.1-1.8-3.9-4-5.3-6.8-1.5-2.8-2.2-6.5-2.2-11 0-5.2 1-9.5 2.8-13 2-3.5 4.5-6.4 7.4-8.6 3.1-2.3 6.6-3.9 10.4-4.9 4-1 8.1-1.6 12-1.6 7.4 0 12.9 1.6 16.2 4.6 3.3 2.9 4.9 6.7 4.9 11.5zm-210.2-32.8c1.4 3.5 2.2 7.3 2.2 11.3 0 6.6-1.8 11.2-5.4 14-3.8 3-9.6 4.6-17 4.6q-1.4-0.1-2.2-0.1c-0.1-4-0.2-7.4-0.3-10.2-0.1-3.5-0.6-6.4-1.5-8.8-1.1-2.9-2.7-5-5.1-6.4-2.1-1.3-4.8-1.9-8.3-1.9-4.6 0-8.6 1-11.9 3-3.2 1.9-5.9 4.4-8.1 7.4-2.1 3-3.8 6.3-5.1 9.9-1.2 3.4-2.2 7-2.9 10.6-0.7 3.5-1.1 7-1.3 10.4-0.2 3.2-0.3 6-0.3 8.4q0 5.7 0.6 10.4h-26.6q-0.3-4.1-0.3-8.6c0-3.8 0.3-8.4 0.8-13.5 0.5-5.1 1.5-10.4 3.1-15.7 1.5-5.3 3.6-10.6 6.3-15.8 2.7-5 6.1-9.5 10.3-13.5 4.1-3.9 9.2-7.1 15.3-9.5 6-2.4 13.3-3.6 21.8-3.6 6.7 0 12.6 0.8 17.5 2.3 4.8 1.6 8.7 3.7 11.8 6.3 3 2.6 5.2 5.6 6.6 9zm74.8 31.7c1.1 3.3 1.7 7 1.7 11.2 0 6.3-1.3 12-3.8 16.9q-0.7 1.5-1.7 2.8h-19.7q0.9-0.4 1.7-0.9c2.2-1.4 4-3.1 5.3-5.2 1.3-2 2.1-4.2 2.5-6.5q0.6-3 0.6-5.5c0-4.7-1.3-8.4-3.7-11.1-2.6-2.8-6.8-4.3-12.4-4.3q-1.8 0-4 0.3-2.1 0.2-4.4 0.4c-1.9 0.3-3.3 1.8-3.4 3.7q-0.3 4.7-0.6 11.3c-0.3 4.2-0.6 8.9-0.9 13.8-0.1 1.8 0.9 3.4 2.5 4h-18.7q0.1-1.6 0.3-3.2c0.7-9 1.2-16.5 1.5-22.2l0.8-13.4c0.2-2.9 0.3-4.7 0.5-5.7q3.3-0.1 6.9-0.2c2.9-0.2 5.8-0.3 8.5-0.5q4-0.3 7.5-0.5 3.5-0.2 6.2-0.2c5.3 0 9.9 0.7 13.6 2 3.5 1.2 6.4 2.9 8.5 5.1 2.1 2.2 3.7 4.8 4.7 7.9zm388.3 0.1c1.1 3.4 1.6 7.3 1.6 11.8 0 4.9-0.6 9.7-1.9 14.2q-0.7 2.4-1.8 4.8h-16.4q1.1-1.5 1.9-3.1c1.3-2.6 2.1-5.2 2.5-7.9 0.4-2.6 0.6-4.8 0.6-6.7 0-4.8-1.2-8.6-3.6-11.4-2.5-2.9-6.6-4.4-12.4-4.4q-2 0-4.3 0.2-2.2 0.3-4.6 0.5c-1.9 0.2-3.4 1.8-3.5 3.7q-0.3 5.7-0.7 13.8c-0.2 4.8-0.5 9.9-0.9 15.3h-15.5c0-1.1 1.1-13.1 1.4-16.9q0.4-5.8 0.7-9.9 0.3-4.1 0.5-6.9 0.2-2.7 0.3-5 0-2 0.1-3.8 0-1 0.1-2 2.8-0.1 5.9-0.2 4.3-0.2 8.5-0.5 4.1-0.3 8-0.5c2.5-0.1 4.8-0.2 6.7-0.2 5.3 0 9.8 0.7 13.6 1.9 3.5 1.2 6.3 2.9 8.4 5.1 2.2 2.2 3.8 4.9 4.8 8.1zm75.2 0c1.1 3.4 1.6 7.3 1.6 11.8 0 4.9-0.6 9.7-1.9 14.2q-0.7 2.4-1.8 4.8h-16.4q1.1-1.5 1.9-3.1c1.3-2.6 2.1-5.2 2.6-7.9 0.3-2.6 0.5-4.8 0.5-6.7 0-4.8-1.2-8.6-3.5-11.4-2.6-2.9-6.7-4.4-12.5-4.4q-2 0-4.3 0.2-2.2 0.3-4.6 0.5c-1.9 0.2-3.4 1.8-3.5 3.7q-0.3 5.7-0.7 13.8c-0.2 4.8-0.5 9.9-0.9 15.3h-15.5c0.1-1.1 1.1-13.1 1.4-16.9q0.5-5.8 0.7-9.9 0.3-4.1 0.5-6.9 0.2-2.7 0.3-5 0-2 0.1-3.8 0-1 0.1-2 2.8-0.1 6-0.2 4.2-0.2 8.4-0.5 4.1-0.3 8-0.5c2.6-0.1 4.8-0.2 6.7-0.2 5.3 0 9.9 0.7 13.6 1.9 3.5 1.2 6.3 2.9 8.5 5.1 2.1 2.2 3.7 4.9 4.7 8.1zm-310.7-13.7h58.3l-0.4 5.6q-0.2 2.9-1.4 4.4c0 0-0.8 1-4.9 1h-14.6c-2 0-3.7 1.6-3.9 3.7l-2 29.8h-15.9q0.2-2.1 0.4-4.2 0.5-6.6 1-13.1l0.9-12c0-1.1-0.3-2.1-1.1-2.9-0.7-0.8-1.7-1.3-2.8-1.3h-19.1l0.3-5.3c0.1-0.8 0.2-1.7 0.5-2.6q0.3-0.9 0.8-1.6 0.6-0.7 1.4-1.1c0.6-0.3 1.4-0.4 2.5-0.4zm378.7 14.7c0 3.9-1 6.8-3 8.7-2 1.9-5.1 2.8-9.2 2.9q-0.1-1.1-0.2-2.4-0.3-2.8-1.3-5.3-1.2-2.9-3.7-5c-1.9-1.5-4.3-2.3-7.3-2.3-3.8 0-7.2 1.2-10.1 3.5-3.2 2.4-4.9 5.9-4.9 9.8 0 3.6 1.5 6.7 4.2 9 2.1 1.7 4.7 3.3 7.8 4.8 2.8 1.3 5.9 2.6 9.3 4q2.1 0.9 4.1 2.1h-31.9c-2.2-1.8-3.9-4-5.4-6.8-1.4-2.8-2.1-6.5-2.1-11 0-5.2 1-9.5 2.8-13 2-3.5 4.4-6.4 7.4-8.6 3.1-2.3 6.5-3.9 10.4-4.9 4-1 8.1-1.6 12-1.6 7.4 0 12.9 1.6 16.2 4.6 3.3 2.9 4.9 6.7 4.9 11.5zm-229.8 17.4q1.6 6.6 3 12.4h-81.4c2.4-6.9 5-14.1 7.8-21.5 3.2-8.3 6.3-16.4 9.4-23.9 3-7.5 5.8-14.1 8.2-19.8 2.5-5.6 4.3-9.5 5.6-11.7 0.4-0.7 0.7-1.2 0.9-1.4 0.4 0 1.2-0.1 2.8-0.1h17.4q3.5 0 5.6 1.2c1.5 0.9 2.7 2 3.8 3.4q1.6 2.4 2.7 5.6c0.8 2.3 1.5 4.6 2.1 7.1q7.3 29.6 12.1 48.7zm-23.4 4.5l-7.7-48.2c-0.2-1.8-1.8-3.2-3.6-3.3q-0.1 0-0.2 0c-1.8 0-3.3 1.2-3.8 2.9l-13.3 48.2c-0.3 1.1-0.1 2.4 0.6 3.4 0.8 0.9 1.9 1.5 3.2 1.5h20.9c1.2 0 2.3-0.5 3-1.4 0.8-0.8 1.1-2 0.9-3.1z"/>
			</g>
			<g id="Icon">
				<g id="&lt;Group&gt;">
					<g id="&lt;Group&gt;">
						<g id="&lt;Group&gt;">
							<path id="&lt;Path&gt;" class="s1" d="m402.5 363.9l84.7-146.1h-82.1l-84.7 146.1z"/>
						</g>
						<g id="&lt;Group&gt;">
							<g id="&lt;Group&gt;">
								<path id="&lt;Path&gt;" class="s4" d="m315.9 362.5l-40.8-70.7h81.8z"/>
							</g>
						</g>
					</g>
					<g id="&lt;Group&gt;">
						<path id="&lt;Path&gt;" class="s2" d="m448.5 291.8l-84.7 146h82l84.7-146z"/>
						<g id="&lt;Group&gt;">
							<path id="&lt;Path&gt;" class="s5" d="m533.9 293.2l40.7 70.7h-81.7z"/>
						</g>
					</g>
				</g>
				<path id="&lt;Compound Path&gt;" class="s6" d="m526.1 360c-8.6-1.9-16.9-4-25-6.2l32.8-56.4 36.1 62.6zm-34-8.7c-12.2-3.6-23-7-32.8-10.6-13.3-4.9-19.1-7.2-29.8-12.2l20.5-35.2h75.8zm-70.7-26.8c-10.6-5.2-19.8-10.3-28.2-15.4-6.2-3.9-11.2-7.1-15.6-10.2-2.8-2-5.7-4.1-8.7-6.2q-1.4-1.1-1.8-1.4c0 0-1.4-1.2-1.5-1.3l41-70.6h75.8z"/>
			</g>
		</g>
	</g>
</svg>